<svg width="158" height="133" viewBox="0 0 158 133" fill="none" xmlns="http://www.w3.org/2000/svg">
<path d="M18.2031 121.055C18.2031 121.656 18.125 122.199 17.9688 122.684C17.8203 123.16 17.6211 123.582 17.3711 123.949C17.1211 124.316 16.8281 124.629 16.4922 124.887C16.1562 125.145 15.8086 125.355 15.4492 125.52C15.0898 125.684 14.7227 125.805 14.3477 125.883C13.9805 125.961 13.6328 126 13.3047 126H1.55078V122.953H13.3047C13.8906 122.953 14.3438 122.781 14.6641 122.438C14.9922 122.094 15.1562 121.633 15.1562 121.055C15.1562 120.773 15.1133 120.516 15.0273 120.281C14.9414 120.047 14.8164 119.844 14.6523 119.672C14.4961 119.5 14.3008 119.367 14.0664 119.273C13.8398 119.18 13.5859 119.133 13.3047 119.133H6.29688C5.80469 119.133 5.27344 119.047 4.70312 118.875C4.13281 118.695 3.60156 118.41 3.10938 118.02C2.625 117.629 2.21875 117.117 1.89062 116.484C1.57031 115.852 1.41016 115.078 1.41016 114.164C1.41016 113.25 1.57031 112.48 1.89062 111.855C2.21875 111.223 2.625 110.711 3.10938 110.32C3.60156 109.922 4.13281 109.637 4.70312 109.465C5.27344 109.285 5.80469 109.195 6.29688 109.195H16.668V112.242H6.29688C5.71875 112.242 5.26562 112.418 4.9375 112.77C4.61719 113.121 4.45703 113.586 4.45703 114.164C4.45703 114.75 4.61719 115.215 4.9375 115.559C5.26562 115.895 5.71875 116.062 6.29688 116.062H13.3047H13.3281C13.6562 116.07 14.0039 116.117 14.3711 116.203C14.7383 116.281 15.1016 116.406 15.4609 116.578C15.8281 116.75 16.1758 116.969 16.5039 117.234C16.832 117.492 17.1211 117.805 17.3711 118.172C17.6289 118.539 17.832 118.961 17.9805 119.438C18.1289 119.914 18.2031 120.453 18.2031 121.055ZM37.4805 116.227C37.4805 116.922 37.3945 117.543 37.2227 118.09C37.0508 118.637 36.8164 119.121 36.5195 119.543C36.2305 119.957 35.8945 120.312 35.5117 120.609C35.1289 120.906 34.7266 121.148 34.3047 121.336C33.8906 121.523 33.4688 121.66 33.0391 121.746C32.6172 121.832 32.2188 121.875 31.8438 121.875H24.9531V118.828H31.8438C32.2344 118.797 32.5859 118.719 32.8984 118.594C33.2188 118.461 33.4922 118.285 33.7188 118.066C33.9453 117.848 34.1211 117.586 34.2461 117.281C34.3711 116.969 34.4336 116.617 34.4336 116.227V114.844C34.3945 114.461 34.3125 114.109 34.1875 113.789C34.0625 113.469 33.8906 113.195 33.6719 112.969C33.4609 112.742 33.2031 112.566 32.8984 112.441C32.5938 112.309 32.2422 112.242 31.8438 112.242H24.9766C24.5703 112.242 24.2617 112.348 24.0508 112.559C23.8398 112.77 23.7344 113.074 23.7344 113.473V126H20.6875V113.473C20.6875 112.691 20.8281 112.027 21.1094 111.48C21.3984 110.934 21.7539 110.492 22.1758 110.156C22.6055 109.82 23.0703 109.578 23.5703 109.43C24.0703 109.273 24.5312 109.195 24.9531 109.195H31.8438C32.5312 109.195 33.1484 109.285 33.6953 109.465C34.2422 109.637 34.7227 109.871 35.1367 110.168C35.5586 110.457 35.9141 110.793 36.2031 111.176C36.5 111.559 36.7422 111.961 36.9297 112.383C37.125 112.797 37.2656 113.219 37.3516 113.648C37.4375 114.07 37.4805 114.469 37.4805 114.844V116.227ZM56.582 126H53.5352V121.875H42.8242V126H39.7773V117.598C39.7773 116.371 39.9883 115.242 40.4102 114.211C40.832 113.18 41.418 112.293 42.168 111.551C42.918 110.809 43.8047 110.23 44.8281 109.816C45.8516 109.402 46.9688 109.195 48.1797 109.195H55.0469C55.2578 109.195 55.457 109.234 55.6445 109.312C55.832 109.391 55.9961 109.5 56.1367 109.641C56.2773 109.781 56.3867 109.945 56.4648 110.133C56.543 110.32 56.582 110.52 56.582 110.73V126ZM42.8242 118.828H53.5352V112.242H48.1797C48.0859 112.242 47.8867 112.258 47.582 112.289C47.2852 112.312 46.9375 112.379 46.5391 112.488C46.1484 112.598 45.7344 112.766 45.2969 112.992C44.8594 113.219 44.457 113.531 44.0898 113.93C43.7227 114.328 43.418 114.828 43.1758 115.43C42.9414 116.023 42.8242 116.746 42.8242 117.598V118.828ZM75.1797 126H64.1875C63.9062 126 63.6016 125.969 63.2734 125.906C62.9531 125.836 62.6328 125.73 62.3125 125.59C62 125.449 61.6992 125.27 61.4102 125.051C61.1211 124.824 60.8633 124.555 60.6367 124.242C60.418 123.922 60.2422 123.555 60.1094 123.141C59.9766 122.719 59.9102 122.246 59.9102 121.723V113.473C59.9102 113.191 59.9414 112.891 60.0039 112.57C60.0742 112.242 60.1797 111.922 60.3203 111.609C60.4609 111.289 60.6445 110.984 60.8711 110.695C61.0977 110.406 61.3672 110.152 61.6797 109.934C62 109.707 62.3672 109.527 62.7812 109.395C63.1953 109.262 63.6641 109.195 64.1875 109.195H75.1797V112.242H64.1875C63.7891 112.242 63.4844 112.348 63.2734 112.559C63.0625 112.77 62.957 113.082 62.957 113.496V121.723C62.957 122.113 63.0625 122.418 63.2734 122.637C63.4922 122.848 63.7969 122.953 64.1875 122.953H75.1797V126ZM91.8789 119.133H82.2578V116.062H91.8789V119.133ZM93.25 126H82.2578C81.8359 126 81.375 125.926 80.875 125.777C80.375 125.629 79.9102 125.387 79.4805 125.051C79.0586 124.707 78.7031 124.266 78.4141 123.727C78.1328 123.18 77.9922 122.512 77.9922 121.723V110.73C77.9922 110.52 78.0312 110.32 78.1094 110.133C78.1875 109.945 78.293 109.781 78.4258 109.641C78.5664 109.5 78.7305 109.391 78.918 109.312C79.1055 109.234 79.3086 109.195 79.5273 109.195H93.25V112.242H81.0391V121.723C81.0391 122.121 81.1445 122.426 81.3555 122.637C81.5664 122.848 81.875 122.953 82.2812 122.953H93.25V126Z" fill="white"/>
<path d="M111.391 112.242H104.676V126H101.629V112.242H94.9023V109.195H111.391V112.242ZM130.434 114.844C130.434 115.539 130.348 116.16 130.176 116.707C130.004 117.254 129.77 117.738 129.473 118.16C129.184 118.574 128.848 118.93 128.465 119.227C128.082 119.523 127.68 119.77 127.258 119.965C126.844 120.152 126.422 120.289 125.992 120.375C125.57 120.461 125.172 120.504 124.797 120.504L131.16 126H126.449L120.098 120.504H117.906V117.457H124.797C125.18 117.426 125.527 117.348 125.84 117.223C126.16 117.09 126.434 116.914 126.66 116.695C126.895 116.477 127.074 116.215 127.199 115.91C127.324 115.598 127.387 115.242 127.387 114.844V112.922C127.387 112.75 127.363 112.621 127.316 112.535C127.277 112.441 127.223 112.375 127.152 112.336C127.09 112.289 127.02 112.262 126.941 112.254C126.871 112.246 126.805 112.242 126.742 112.242H116.688V126H113.641V110.73C113.641 110.52 113.68 110.32 113.758 110.133C113.836 109.945 113.941 109.781 114.074 109.641C114.215 109.5 114.379 109.391 114.566 109.312C114.754 109.234 114.957 109.195 115.176 109.195H126.742C127.422 109.195 127.996 109.32 128.465 109.57C128.934 109.812 129.312 110.121 129.602 110.496C129.898 110.863 130.109 111.262 130.234 111.691C130.367 112.121 130.434 112.523 130.434 112.898V114.844ZM136.562 126H133.516V109.195H136.562V126ZM156.871 116.227C156.871 116.922 156.785 117.543 156.613 118.09C156.441 118.637 156.207 119.121 155.91 119.543C155.621 119.957 155.285 120.312 154.902 120.609C154.52 120.906 154.117 121.148 153.695 121.336C153.281 121.523 152.859 121.66 152.43 121.746C152.008 121.832 151.609 121.875 151.234 121.875H144.344V118.828H151.234C151.625 118.797 151.977 118.719 152.289 118.594C152.609 118.461 152.883 118.285 153.109 118.066C153.336 117.848 153.512 117.586 153.637 117.281C153.762 116.969 153.824 116.617 153.824 116.227V114.844C153.785 114.461 153.703 114.109 153.578 113.789C153.453 113.469 153.281 113.195 153.062 112.969C152.852 112.742 152.594 112.566 152.289 112.441C151.984 112.309 151.633 112.242 151.234 112.242H144.367C143.961 112.242 143.652 112.348 143.441 112.559C143.23 112.77 143.125 113.074 143.125 113.473V126H140.078V113.473C140.078 112.691 140.219 112.027 140.5 111.48C140.789 110.934 141.145 110.492 141.566 110.156C141.996 109.82 142.461 109.578 142.961 109.43C143.461 109.273 143.922 109.195 144.344 109.195H151.234C151.922 109.195 152.539 109.285 153.086 109.465C153.633 109.637 154.113 109.871 154.527 110.168C154.949 110.457 155.305 110.793 155.594 111.176C155.891 111.559 156.133 111.961 156.32 112.383C156.516 112.797 156.656 113.219 156.742 113.648C156.828 114.07 156.871 114.469 156.871 114.844V116.227Z" fill="#F4620F"/>
<circle cx="79.3346" cy="35.4962" r="5.72519" fill="white"/>
<path fill-rule="evenodd" clip-rule="evenodd" d="M102.616 68.1298C102.613 67.6944 102.597 67.2619 102.57 66.8326C102.567 66.7738 102.563 66.7151 102.559 66.6565C102.043 59.3499 98.1551 52.9742 92.4424 49.0757C92.4394 49.0571 92.4364 49.0385 92.4334 49.0199C92.0373 46.5801 91.5875 44.3171 91.0966 42.2217C87.7601 27.9818 82.5231 21.4824 79.3347 19.8473V45.0382L79.3347 19.8474C76.1313 21.4901 70.8597 28.0436 67.5256 42.4247C67.0493 44.4791 66.6126 46.6933 66.227 49.0757C60.1335 53.2341 56.1166 60.211 56.0531 68.1298C56.0525 68.1933 56.0523 68.2569 56.0523 68.3206C56.0523 71.9771 56.8952 75.4367 58.3972 78.5157C56.3487 75.4607 54.9511 71.9325 54.4029 68.1298H40L79.3347 0L118.669 68.1298H104.267C103.718 71.9325 102.321 75.4606 100.272 78.5156L100.321 78.4145C101.793 75.361 102.617 71.9371 102.617 68.3206C102.617 68.2569 102.617 68.1933 102.616 68.1298Z" fill="url(#paint0_radial_635_2)"/>
<path fill-rule="evenodd" clip-rule="evenodd" d="M64.0674 68.3344V68.3069C64.0716 63.4911 66.3056 59.1973 69.7926 56.402V83.7786C69.7926 85.3596 68.5109 86.6412 66.93 86.6412C65.349 86.6412 64.0674 85.3596 64.0674 83.7786V68.3344ZM88.8765 56.402C92.3623 59.1963 94.5959 63.4881 94.6017 68.3017V83.7786C94.6017 85.3596 93.3201 86.6412 91.7391 86.6412C90.1582 86.6412 88.8765 85.3596 88.8765 83.7786V56.402ZM83.1514 53.5345V96.1832C83.1514 98.2912 81.4425 100 79.3346 100C77.2266 100 75.5178 98.2912 75.5178 96.1832V53.5344C76.7377 53.2205 78.0166 53.0535 79.3346 53.0535C80.6525 53.0535 81.9314 53.2205 83.1514 53.5345Z" fill="#F4620F"/>
<defs>
<radialGradient id="paint0_radial_635_2" cx="0" cy="0" r="1" gradientUnits="userSpaceOnUse" gradientTransform="translate(79 83.5) rotate(-90) scale(83.5 83.6636)">
<stop offset="0.489583" stop-color="#0085FF"/>
<stop offset="0.604167" stop-color="white"/>
<stop offset="0.630208" stop-color="#003D76"/>
</radialGradient>
</defs>
</svg>
