<svg width="47" height="59" viewBox="0 0 47 59" fill="none" xmlns="http://www.w3.org/2000/svg">
<circle cx="23.2075" cy="20.9428" r="3.37786" fill="white"/>
<path fill-rule="evenodd" clip-rule="evenodd" d="M23.2075 0L46.415 40.1966H37.9172C37.5937 42.4403 36.7691 44.5219 35.5604 46.3244C36.4467 44.5077 36.944 42.4665 36.944 40.3091C36.944 40.2716 36.9439 40.234 36.9436 40.1966C36.9382 39.5225 36.8842 38.8599 36.785 38.2123C36.1966 34.3713 34.0174 31.0543 30.941 28.9548C30.941 28.9548 30.941 28.9547 30.941 28.9547C30.941 28.9546 30.9409 28.9546 30.9409 28.9546C30.7059 27.5025 30.4387 26.1564 30.1468 24.9107C30.1469 24.9107 30.1469 24.9107 30.1469 24.9107C28.1784 16.5093 25.0885 12.6747 23.2074 11.71V26.5726H23.2074V11.71C21.0474 12.8177 17.2935 17.7096 15.4739 28.9548C11.8787 31.4082 9.50874 35.5245 9.4712 40.1966H9.47114C9.47084 40.2341 9.47069 40.2716 9.47069 40.3092C9.47069 42.4661 9.96781 44.5069 10.8537 46.3233C9.64544 44.5211 8.82107 42.4398 8.49768 40.1966H0L23.2075 0ZM23.2073 23.1946H23.2074L23.2074 26.5725H23.2073V23.1946Z" fill="white"/>
<path fill-rule="evenodd" clip-rule="evenodd" d="M14.1997 49.4522V40.3091H14.1999C14.1999 37.4647 15.5183 34.9282 17.5774 33.2774V49.4294C17.5774 50.3622 16.8213 51.1184 15.8885 51.1184C14.9633 51.1184 14.2119 50.3745 14.1997 49.4522ZM28.8368 33.2767C30.8732 34.909 32.1854 37.4075 32.2146 40.2135V49.4294C32.2146 50.3622 31.4585 51.1183 30.5257 51.1183C29.5929 51.1183 28.8368 50.3622 28.8368 49.4294V33.2767ZM25.4588 31.5851V56.7481C25.4588 57.9918 24.4506 59 23.2069 59C21.9632 59 20.955 57.9918 20.955 56.7481V31.5854C21.6749 31.4001 22.4297 31.3015 23.2075 31.3015C23.9849 31.3015 24.7393 31.4 25.4588 31.5851Z" fill="white"/>
</svg>
