<svg width="215" height="59" viewBox="0 0 215 59" fill="none" xmlns="http://www.w3.org/2000/svg">
<path d="M75.0757 37.0547C75.0757 37.6562 74.9976 38.1992 74.8413 38.6836C74.6929 39.1602 74.4937 39.582 74.2437 39.9492C73.9937 40.3164 73.7007 40.6289 73.3647 40.8867C73.0288 41.1445 72.6812 41.3555 72.3218 41.5195C71.9624 41.6836 71.5952 41.8047 71.2202 41.8828C70.853 41.9609 70.5054 42 70.1772 42H58.4233V38.9531H70.1772C70.7632 38.9531 71.2163 38.7812 71.5366 38.4375C71.8647 38.0938 72.0288 37.6328 72.0288 37.0547C72.0288 36.7734 71.9858 36.5156 71.8999 36.2812C71.814 36.0469 71.689 35.8438 71.5249 35.6719C71.3687 35.5 71.1733 35.3672 70.939 35.2734C70.7124 35.1797 70.4585 35.1328 70.1772 35.1328H63.1694C62.6772 35.1328 62.146 35.0469 61.5757 34.875C61.0054 34.6953 60.4741 34.4102 59.9819 34.0195C59.4976 33.6289 59.0913 33.1172 58.7632 32.4844C58.4429 31.8516 58.2827 31.0781 58.2827 30.1641C58.2827 29.25 58.4429 28.4805 58.7632 27.8555C59.0913 27.2227 59.4976 26.7109 59.9819 26.3203C60.4741 25.9219 61.0054 25.6367 61.5757 25.4648C62.146 25.2852 62.6772 25.1953 63.1694 25.1953H73.5405V28.2422H63.1694C62.5913 28.2422 62.1382 28.418 61.8101 28.7695C61.4897 29.1211 61.3296 29.5859 61.3296 30.1641C61.3296 30.75 61.4897 31.2148 61.8101 31.5586C62.1382 31.8945 62.5913 32.0625 63.1694 32.0625H70.1772H70.2007C70.5288 32.0703 70.8765 32.1172 71.2437 32.2031C71.6108 32.2812 71.9741 32.4062 72.3335 32.5781C72.7007 32.75 73.0483 32.9688 73.3765 33.2344C73.7046 33.4922 73.9937 33.8047 74.2437 34.1719C74.5015 34.5391 74.7046 34.9609 74.853 35.4375C75.0015 35.9141 75.0757 36.4531 75.0757 37.0547ZM94.353 32.2266C94.353 32.9219 94.2671 33.543 94.0952 34.0898C93.9233 34.6367 93.689 35.1211 93.3921 35.543C93.103 35.957 92.7671 36.3125 92.3843 36.6094C92.0015 36.9062 91.5991 37.1484 91.1772 37.3359C90.7632 37.5234 90.3413 37.6602 89.9116 37.7461C89.4897 37.832 89.0913 37.875 88.7163 37.875H81.8257V34.8281H88.7163C89.1069 34.7969 89.4585 34.7188 89.771 34.5938C90.0913 34.4609 90.3647 34.2852 90.5913 34.0664C90.8179 33.8477 90.9937 33.5859 91.1187 33.2812C91.2437 32.9688 91.3062 32.6172 91.3062 32.2266V30.8438C91.2671 30.4609 91.1851 30.1094 91.0601 29.7891C90.9351 29.4688 90.7632 29.1953 90.5444 28.9688C90.3335 28.7422 90.0757 28.5664 89.771 28.4414C89.4663 28.3086 89.1147 28.2422 88.7163 28.2422H81.8491C81.4429 28.2422 81.1343 28.3477 80.9233 28.5586C80.7124 28.7695 80.6069 29.0742 80.6069 29.4727V42H77.5601V29.4727C77.5601 28.6914 77.7007 28.0273 77.9819 27.4805C78.271 26.9336 78.6265 26.4922 79.0483 26.1562C79.478 25.8203 79.9429 25.5781 80.4429 25.4297C80.9429 25.2734 81.4038 25.1953 81.8257 25.1953H88.7163C89.4038 25.1953 90.021 25.2852 90.5679 25.4648C91.1147 25.6367 91.5952 25.8711 92.0093 26.168C92.4312 26.457 92.7866 26.793 93.0757 27.1758C93.3726 27.5586 93.6147 27.9609 93.8022 28.3828C93.9976 28.7969 94.1382 29.2188 94.2241 29.6484C94.3101 30.0703 94.353 30.4688 94.353 30.8438V32.2266ZM113.455 42H110.408V37.875H99.6968V42H96.6499V33.5977C96.6499 32.3711 96.8608 31.2422 97.2827 30.2109C97.7046 29.1797 98.2905 28.293 99.0405 27.5508C99.7905 26.8086 100.677 26.2305 101.701 25.8164C102.724 25.4023 103.841 25.1953 105.052 25.1953H111.919C112.13 25.1953 112.33 25.2344 112.517 25.3125C112.705 25.3906 112.869 25.5 113.009 25.6406C113.15 25.7812 113.259 25.9453 113.337 26.1328C113.416 26.3203 113.455 26.5195 113.455 26.7305V42ZM99.6968 34.8281H110.408V28.2422H105.052C104.958 28.2422 104.759 28.2578 104.455 28.2891C104.158 28.3125 103.81 28.3789 103.412 28.4883C103.021 28.5977 102.607 28.7656 102.169 28.9922C101.732 29.2188 101.33 29.5312 100.962 29.9297C100.595 30.3281 100.291 30.8281 100.048 31.4297C99.814 32.0234 99.6968 32.7461 99.6968 33.5977V34.8281ZM132.052 42H121.06C120.779 42 120.474 41.9688 120.146 41.9062C119.826 41.8359 119.505 41.7305 119.185 41.5898C118.873 41.4492 118.572 41.2695 118.283 41.0508C117.994 40.8242 117.736 40.5547 117.509 40.2422C117.291 39.9219 117.115 39.5547 116.982 39.1406C116.849 38.7188 116.783 38.2461 116.783 37.7227V29.4727C116.783 29.1914 116.814 28.8906 116.876 28.5703C116.947 28.2422 117.052 27.9219 117.193 27.6094C117.333 27.2891 117.517 26.9844 117.744 26.6953C117.97 26.4062 118.24 26.1523 118.552 25.9336C118.873 25.707 119.24 25.5273 119.654 25.3945C120.068 25.2617 120.537 25.1953 121.06 25.1953H132.052V28.2422H121.06C120.662 28.2422 120.357 28.3477 120.146 28.5586C119.935 28.7695 119.83 29.082 119.83 29.4961V37.7227C119.83 38.1133 119.935 38.418 120.146 38.6367C120.365 38.8477 120.669 38.9531 121.06 38.9531H132.052V42ZM148.751 35.1328H139.13V32.0625H148.751V35.1328ZM150.123 42H139.13C138.708 42 138.248 41.9258 137.748 41.7773C137.248 41.6289 136.783 41.3867 136.353 41.0508C135.931 40.707 135.576 40.2656 135.287 39.7266C135.005 39.1797 134.865 38.5117 134.865 37.7227V26.7305C134.865 26.5195 134.904 26.3203 134.982 26.1328C135.06 25.9453 135.166 25.7812 135.298 25.6406C135.439 25.5 135.603 25.3906 135.791 25.3125C135.978 25.2344 136.181 25.1953 136.4 25.1953H150.123V28.2422H137.912V37.7227C137.912 38.1211 138.017 38.4258 138.228 38.6367C138.439 38.8477 138.748 38.9531 139.154 38.9531H150.123V42Z" fill="white"/>
<path d="M168.263 28.2422H161.548V42H158.501V28.2422H151.775V25.1953H168.263V28.2422ZM187.306 30.8438C187.306 31.5391 187.22 32.1602 187.048 32.707C186.876 33.2539 186.642 33.7383 186.345 34.1602C186.056 34.5742 185.72 34.9297 185.337 35.2266C184.955 35.5234 184.552 35.7695 184.13 35.9648C183.716 36.1523 183.294 36.2891 182.865 36.375C182.443 36.4609 182.044 36.5039 181.669 36.5039L188.033 42H183.322L176.97 36.5039H174.779V33.457H181.669C182.052 33.4258 182.4 33.3477 182.712 33.2227C183.033 33.0898 183.306 32.9141 183.533 32.6953C183.767 32.4766 183.947 32.2148 184.072 31.9102C184.197 31.5977 184.259 31.2422 184.259 30.8438V28.9219C184.259 28.75 184.236 28.6211 184.189 28.5352C184.15 28.4414 184.095 28.375 184.025 28.3359C183.962 28.2891 183.892 28.2617 183.814 28.2539C183.744 28.2461 183.677 28.2422 183.615 28.2422H173.56V42H170.513V26.7305C170.513 26.5195 170.552 26.3203 170.63 26.1328C170.708 25.9453 170.814 25.7812 170.947 25.6406C171.087 25.5 171.251 25.3906 171.439 25.3125C171.626 25.2344 171.83 25.1953 172.048 25.1953H183.615C184.294 25.1953 184.869 25.3203 185.337 25.5703C185.806 25.8125 186.185 26.1211 186.474 26.4961C186.771 26.8633 186.982 27.2617 187.107 27.6914C187.24 28.1211 187.306 28.5234 187.306 28.8984V30.8438ZM193.435 42H190.388V25.1953H193.435V42ZM213.744 32.2266C213.744 32.9219 213.658 33.543 213.486 34.0898C213.314 34.6367 213.08 35.1211 212.783 35.543C212.494 35.957 212.158 36.3125 211.775 36.6094C211.392 36.9062 210.99 37.1484 210.568 37.3359C210.154 37.5234 209.732 37.6602 209.302 37.7461C208.88 37.832 208.482 37.875 208.107 37.875H201.216V34.8281H208.107C208.498 34.7969 208.849 34.7188 209.162 34.5938C209.482 34.4609 209.755 34.2852 209.982 34.0664C210.208 33.8477 210.384 33.5859 210.509 33.2812C210.634 32.9688 210.697 32.6172 210.697 32.2266V30.8438C210.658 30.4609 210.576 30.1094 210.451 29.7891C210.326 29.4688 210.154 29.1953 209.935 28.9688C209.724 28.7422 209.466 28.5664 209.162 28.4414C208.857 28.3086 208.505 28.2422 208.107 28.2422H201.24C200.833 28.2422 200.525 28.3477 200.314 28.5586C200.103 28.7695 199.998 29.0742 199.998 29.4727V42H196.951V29.4727C196.951 28.6914 197.091 28.0273 197.373 27.4805C197.662 26.9336 198.017 26.4922 198.439 26.1562C198.869 25.8203 199.333 25.5781 199.833 25.4297C200.333 25.2734 200.794 25.1953 201.216 25.1953H208.107C208.794 25.1953 209.412 25.2852 209.958 25.4648C210.505 25.6367 210.986 25.8711 211.4 26.168C211.822 26.457 212.177 26.793 212.466 27.1758C212.763 27.5586 213.005 27.9609 213.193 28.3828C213.388 28.7969 213.529 29.2188 213.615 29.6484C213.701 30.0703 213.744 30.4688 213.744 30.8438V32.2266Z" fill="#F4620F"/>
<circle cx="23.2075" cy="20.9428" r="3.37786" fill="white"/>
<path fill-rule="evenodd" clip-rule="evenodd" d="M23.2075 0L46.415 40.1966H37.9172C37.5937 42.4403 36.7691 44.5219 35.5604 46.3244C36.4467 44.5077 36.944 42.4665 36.944 40.3091C36.944 40.2716 36.9439 40.234 36.9436 40.1966C36.9382 39.5225 36.8842 38.8599 36.785 38.2123C36.1966 34.3713 34.0174 31.0543 30.941 28.9548C30.941 28.9548 30.941 28.9547 30.941 28.9547C30.941 28.9546 30.9409 28.9546 30.9409 28.9546C30.7059 27.5025 30.4387 26.1564 30.1468 24.9107C30.1469 24.9107 30.1469 24.9107 30.1469 24.9107C28.1784 16.5093 25.0885 12.6747 23.2074 11.71V26.5726H23.2074V11.71C21.0474 12.8177 17.2935 17.7096 15.4739 28.9548C11.8787 31.4082 9.50874 35.5245 9.4712 40.1966H9.47114C9.47084 40.2341 9.47069 40.2716 9.47069 40.3092C9.47069 42.4661 9.96781 44.5069 10.8537 46.3233C9.64544 44.5211 8.82107 42.4398 8.49768 40.1966H0L23.2075 0ZM23.2073 23.1946H23.2074L23.2074 26.5725H23.2073V23.1946Z" fill="url(#paint0_radial_230_2)"/>
<path fill-rule="evenodd" clip-rule="evenodd" d="M14.1997 49.4522V40.3091H14.1999C14.1999 37.4647 15.5183 34.9282 17.5774 33.2774V49.4294C17.5774 50.3622 16.8213 51.1184 15.8885 51.1184C14.9633 51.1184 14.2119 50.3745 14.1997 49.4522ZM28.8368 33.2767C30.8732 34.909 32.1854 37.4075 32.2146 40.2135V49.4294C32.2146 50.3622 31.4585 51.1183 30.5257 51.1183C29.5929 51.1183 28.8368 50.3622 28.8368 49.4294V33.2767ZM25.4588 31.5851V56.7481C25.4588 57.9918 24.4506 59 23.2069 59C21.9632 59 20.955 57.9918 20.955 56.7481V31.5854C21.6749 31.4001 22.4297 31.3015 23.2075 31.3015C23.9849 31.3015 24.7393 31.4 25.4588 31.5851Z" fill="#F4620F"/>
<defs>
<radialGradient id="paint0_radial_230_2" cx="0" cy="0" r="1" gradientUnits="userSpaceOnUse" gradientTransform="translate(23.01 49.265) rotate(-90) scale(49.265 49.3615)">
<stop offset="0.489583" stop-color="#0085FF"/>
<stop offset="0.604167" stop-color="white"/>
<stop offset="0.630208" stop-color="#003D76"/>
</radialGradient>
</defs>
</svg>
